<mxfile host="app.diagrams.net" modified="2024-02-03T03:49:45.941Z" agent="Mozilla/5.0 (Windows NT 10.0; Win64; x64) AppleWebKit/537.36 (KHTML, like Gecko) Chrome/121.0.0.0 Safari/537.36 Edg/121.0.0.0" version="22.1.18" etag="jKwHTeYB-DCp7uMhRs1V" type="github">
  <diagram name="第 1 页" id="G4B3m9XM2fWSZqAFkqBE">
    <mxGraphModel>
      <root>
        <mxCell id="0" />
        <mxCell id="1" parent="0" />
      </root>
    </mxGraphModel>
  </diagram>
</mxfile>
